<?xml version="1.0" encoding="UTF-8" standalone="no"?>
<!-- Created by Polyform Puzzler (http://puzzler.sourceforge.net/) -->

<svg
   xmlns:dc="http://purl.org/dc/elements/1.1/"
   xmlns:cc="http://creativecommons.org/ns#"
   xmlns:rdf="http://www.w3.org/1999/02/22-rdf-syntax-ns#"
   xmlns:svg="http://www.w3.org/2000/svg"
   xmlns="http://www.w3.org/2000/svg"
   xmlns:sodipodi="http://sodipodi.sourceforge.net/DTD/sodipodi-0.dtd"
   xmlns:inkscape="http://www.inkscape.org/namespaces/inkscape"
   width="460.000"
   height="460.000"
   viewBox="0 0 460.000 460.000"
   version="1.1"
   id="svg188"
   sodipodi:docname="polyiamonds-1234567-iamond-ring.svg"
   inkscape:version="0.92.3 (unknown)">
  <metadata
     id="metadata194">
    <rdf:RDF>
      <cc:Work
         rdf:about="">
        <dc:format>image/svg+xml</dc:format>
        <dc:type
           rdf:resource="http://purl.org/dc/dcmitype/StillImage" />
      </cc:Work>
    </rdf:RDF>
  </metadata>
  <defs
     id="defs192" />
  <sodipodi:namedview
     pagecolor="#ffffff"
     bordercolor="#666666"
     borderopacity="1"
     objecttolerance="10"
     gridtolerance="10"
     guidetolerance="10"
     inkscape:pageopacity="0"
     inkscape:pageshadow="2"
     inkscape:window-width="1920"
     inkscape:window-height="1056"
     id="namedview190"
     showgrid="false"
     inkscape:zoom="0.51304348"
     inkscape:cx="230"
     inkscape:cy="230"
     inkscape:window-x="0"
     inkscape:window-y="24"
     inkscape:window-maximized="1"
     inkscape:current-layer="svg188" />
  <g
     transform="rotate(-90,218.218,126.782)"
     id="g186">
    <polygon
       points="100,129.904 90,112.583 80,112.583 75,121.244 80,129.904 "
       id="polygon4"
       style="fill:#008000;stroke:#ffffff;stroke-width:1;stroke-linejoin:round">
      <desc
         id="desc2">D7</desc>
    </polygon>
    <polygon
       points="120,129.904 125,121.244 120,112.583 110,112.583 115,121.244 95,121.244 100,129.904 "
       id="polygon8"
       style="fill:#9acd32;stroke:#ffffff;stroke-width:1;stroke-linejoin:round">
      <desc
         id="desc6">J7</desc>
    </polygon>
    <polygon
       points="145,121.244 135,121.244 130,112.583 120,112.583 125,121.244 120,129.904 150,129.904 "
       id="polygon12"
       style="fill:#40e0d0;stroke:#ffffff;stroke-width:1;stroke-linejoin:round">
      <desc
         id="desc10">H7</desc>
    </polygon>
    <polygon
       points="160,112.583 155,103.923 150,112.583 130,112.583 135,121.244 145,121.244 150,129.904 "
       id="polygon16"
       style="fill:#008080;stroke:#ffffff;stroke-width:1;stroke-linejoin:round">
      <desc
         id="desc14">T7</desc>
    </polygon>
    <polygon
       points="85,103.923 95,103.923 85,86.603 70,112.583 75,121.244 "
       id="polygon20"
       style="fill:#ff00ff;stroke:#ffffff;stroke-width:1;stroke-linejoin:round">
      <desc
         id="desc18">P7</desc>
    </polygon>
    <polygon
       points="115,121.244 110,112.583 100,112.583 95,103.923 85,103.923 80,112.583 90,112.583 95,121.244 "
       id="polygon24"
       style="fill:#808080;stroke:#ffffff;stroke-width:1;stroke-linejoin:round">
      <desc
         id="desc22">N7</desc>
    </polygon>
    <polygon
       points="85,86.603 65,86.603 70,95.263 60,95.263 65,103.923 70,112.583 "
       id="polygon28"
       style="fill:#ff0000;stroke:#ffffff;stroke-width:1;stroke-linejoin:round">
      <desc
         id="desc26">M7</desc>
    </polygon>
    <polygon
       points="120,112.583 110,95.263 100,95.263 105,103.923 95,103.923 100,112.583 "
       id="polygon32"
       style="fill:#ffd700;stroke:#ffffff;stroke-width:1;stroke-linejoin:round">
      <desc
         id="desc30">V6</desc>
    </polygon>
    <polygon
       points="140,112.583 135,103.923 125,103.923 120,95.263 110,95.263 115,103.923 120,112.583 "
       id="polygon36"
       style="fill:#8a2be2;stroke:#ffffff;stroke-width:1;stroke-linejoin:round">
      <desc
         id="desc34">C6</desc>
    </polygon>
    <polygon
       points="150,95.263 140,95.263 135,86.603 125,103.923 135,103.923 140,112.583 "
       id="polygon40"
       style="fill:#ff0000;stroke:#ffffff;stroke-width:1;stroke-linejoin:round">
      <desc
         id="desc38">X6</desc>
    </polygon>
    <polygon
       points="165,86.603 160,77.942 140,112.583 150,112.583 "
       id="polygon44"
       style="fill:#0000ff;stroke:#ffffff;stroke-width:1;stroke-linejoin:round">
      <desc
         id="desc42">I7</desc>
    </polygon>
    <polygon
       points="175,86.603 170,77.942 160,77.942 165,86.603 155,103.923 160,112.583 "
       id="polygon48"
       style="fill:#4682b4;stroke:#ffffff;stroke-width:1;stroke-linejoin:round">
      <desc
         id="desc46">L7</desc>
    </polygon>
    <polygon
       points="105,103.923 90,77.942 80,77.942 90,95.263 95,103.923 "
       id="polygon52"
       style="fill:#0000ff;stroke:#ffffff;stroke-width:1;stroke-linejoin:round">
      <desc
         id="desc50">I6</desc>
    </polygon>
    <polygon
       points="135,86.603 130,77.942 120,95.263 125,103.923 "
       id="polygon56"
       style="fill:#dda0dd;stroke:#ffffff;stroke-width:1;stroke-linejoin:round">
      <desc
         id="desc54">I4</desc>
    </polygon>
    <polygon
       points="70,95.263 65,86.603 70,77.942 60,77.942 55,69.282 45,69.282 55,86.603 60,95.263 "
       id="polygon60"
       style="fill:#ff8c00;stroke:#ffffff;stroke-width:1;stroke-linejoin:round">
      <desc
         id="desc58">E7</desc>
    </polygon>
    <polygon
       points="120,95.263 125,86.603 95,86.603 100,95.263 "
       id="polygon64"
       style="fill:#ff4500;stroke:#ffffff;stroke-width:1;stroke-linejoin:round">
      <desc
         id="desc62">I5</desc>
    </polygon>
    <polygon
       points="150,95.263 155,86.603 145,86.603 150,77.942 145,69.282 135,86.603 140,95.263 "
       id="polygon68"
       style="fill:#800000;stroke:#ffffff;stroke-width:1;stroke-linejoin:round">
      <desc
         id="desc66">G6</desc>
    </polygon>
    <polygon
       points="80,77.942 85,69.282 75,69.282 70,60.622 65,69.282 70,77.942 65,86.603 85,86.603 "
       id="polygon72"
       style="fill:#4b0082;stroke:#ffffff;stroke-width:1;stroke-linejoin:round">
      <desc
         id="desc70">X7</desc>
    </polygon>
    <polygon
       points="105,86.603 95,69.282 90,77.942 95,86.603 "
       id="polygon76"
       style="fill:#008080;stroke:#ffffff;stroke-width:1;stroke-linejoin:round">
      <desc
         id="desc74">I3</desc>
    </polygon>
    <polygon
       points="120,77.942 115,86.603 125,86.603 "
       id="polygon80"
       style="fill:#808080;stroke:#ffffff;stroke-width:1;stroke-linejoin:round">
      <desc
         id="desc78">T1</desc>
    </polygon>
    <polygon
       points="130,77.942 135,86.603 140,77.942 135,69.282 125,69.282 120,77.942 125,86.603 "
       id="polygon84"
       style="fill:#808000;stroke:#ffffff;stroke-width:1;stroke-linejoin:round">
      <desc
         id="desc82">C5</desc>
    </polygon>
    <polygon
       points="160,77.942 150,60.622 140,60.622 150,77.942 145,86.603 155,86.603 "
       id="polygon88"
       style="fill:#00ff00;stroke:#ffffff;stroke-width:1;stroke-linejoin:round">
      <desc
         id="desc86">J6</desc>
    </polygon>
    <polygon
       points="185,69.282 180,60.622 170,60.622 175,69.282 165,69.282 160,77.942 170,77.942 175,86.603 "
       id="polygon92"
       style="fill:#cd853f;stroke:#ffffff;stroke-width:1;stroke-linejoin:round">
      <desc
         id="desc90">A7</desc>
    </polygon>
    <polygon
       points="70,77.942 65,69.282 70,60.622 65,51.962 60,60.622 50,60.622 45,69.282 55,69.282 60,77.942 "
       id="polygon96"
       style="fill:#8a2be2;stroke:#ffffff;stroke-width:1;stroke-linejoin:round">
      <desc
         id="desc94">W7</desc>
    </polygon>
    <polygon
       points="95,69.282 90,60.622 95,51.962 85,51.962 80,60.622 85,69.282 80,77.942 90,77.942 "
       id="polygon100"
       style="fill:#000080;stroke:#ffffff;stroke-width:1;stroke-linejoin:round">
      <desc
         id="desc98">S6</desc>
    </polygon>
    <polygon
       points="145,69.282 140,60.622 120,60.622 125,69.282 135,69.282 140,77.942 "
       id="polygon104"
       style="fill:#8fbc8f;stroke:#ffffff;stroke-width:1;stroke-linejoin:round">
      <desc
         id="desc102">L5</desc>
    </polygon>
    <polygon
       points="165,69.282 175,69.282 170,60.622 180,60.622 175,51.962 165,51.962 155,69.282 160,77.942 "
       id="polygon108"
       style="fill:#8fbc8f;stroke:#ffffff;stroke-width:1;stroke-linejoin:round">
      <desc
         id="desc106">F7</desc>
    </polygon>
    <polygon
       points="85,69.282 80,60.622 90,43.301 70,43.301 75,51.962 70,60.622 75,69.282 "
       id="polygon112"
       style="fill:#f08080;stroke:#ffffff;stroke-width:1;stroke-linejoin:round">
      <desc
         id="desc110">Q7</desc>
    </polygon>
    <polygon
       points="100,60.622 95,51.962 90,60.622 95,69.282 "
       id="polygon116"
       style="fill:#4682b4;stroke:#ffffff;stroke-width:1;stroke-linejoin:round">
      <desc
         id="desc114">D2</desc>
    </polygon>
    <polygon
       points="160,60.622 150,43.301 145,51.962 135,51.962 140,60.622 150,60.622 155,69.282 "
       id="polygon120"
       style="fill:#40e0d0;stroke:#ffffff;stroke-width:1;stroke-linejoin:round">
      <desc
         id="desc118">H6</desc>
    </polygon>
    <polygon
       points="65,51.962 70,60.622 75,51.962 65,34.641 50,60.622 60,60.622 "
       id="polygon124"
       style="fill:#800000;stroke:#ffffff;stroke-width:1;stroke-linejoin:round">
      <desc
         id="desc122">G7</desc>
    </polygon>
    <polygon
       points="105,51.962 115,51.962 110,43.301 100,43.301 95,51.962 100,60.622 "
       id="polygon128"
       style="fill:#a52a2a;stroke:#ffffff;stroke-width:1;stroke-linejoin:round">
      <desc
         id="desc126">C4</desc>
    </polygon>
    <polygon
       points="130,43.301 125,34.641 120,43.301 110,43.301 115,51.962 120,60.622 "
       id="polygon132"
       style="fill:#4b0082;stroke:#ffffff;stroke-width:1;stroke-linejoin:round">
      <desc
         id="desc130">P5</desc>
    </polygon>
    <polygon
       points="130,43.301 120,60.622 140,60.622 "
       id="polygon136"
       style="fill:#ff6347;stroke:#ffffff;stroke-width:1;stroke-linejoin:round">
      <desc
         id="desc134">T4</desc>
    </polygon>
    <polygon
       points="165,51.962 175,51.962 165,34.641 155,34.641 160,43.301 150,43.301 155,51.962 160,60.622 "
       id="polygon140"
       style="fill:#dda0dd;stroke:#ffffff;stroke-width:1;stroke-linejoin:round">
      <desc
         id="desc138">B7</desc>
    </polygon>
    <polygon
       points="100,43.301 110,43.301 100,25.981 85,51.962 95,51.962 "
       id="polygon144"
       style="fill:#ff00ff;stroke:#ffffff;stroke-width:1;stroke-linejoin:round">
      <desc
         id="desc142">P6</desc>
    </polygon>
    <polygon
       points="145,51.962 150,43.301 145,34.641 135,34.641 130,43.301 135,51.962 "
       id="polygon148"
       style="fill:#008000;stroke:#ffffff;stroke-width:1;stroke-linejoin:round">
      <desc
         id="desc146">O6</desc>
    </polygon>
    <polygon
       points="90,43.301 95,34.641 90,25.981 85,34.641 75,34.641 70,25.981 65,34.641 70,43.301 "
       id="polygon152"
       style="fill:#00ff00;stroke:#ffffff;stroke-width:1;stroke-linejoin:round">
      <desc
         id="desc150">C7</desc>
    </polygon>
    <polygon
       points="120,43.301 125,34.641 115,34.641 120,25.981 100,25.981 105,34.641 110,43.301 "
       id="polygon156"
       style="fill:#dda0dd;stroke:#ffffff;stroke-width:1;stroke-linejoin:round">
      <desc
         id="desc154">F6</desc>
    </polygon>
    <polygon
       points="135,34.641 145,34.641 140,25.981 120,25.981 115,34.641 125,34.641 130,43.301 "
       id="polygon160"
       style="fill:#ff8c00;stroke:#ffffff;stroke-width:1;stroke-linejoin:round">
      <desc
         id="desc158">E6</desc>
    </polygon>
    <polygon
       points="160,43.301 155,34.641 165,34.641 160,25.981 150,25.981 145,17.321 140,25.981 145,34.641 150,43.301 "
       id="polygon164"
       style="fill:#ffff00;stroke:#ffffff;stroke-width:1;stroke-linejoin:round">
      <desc
         id="desc162">Y7</desc>
    </polygon>
    <polygon
       points="85,34.641 90,25.981 95,34.641 100,25.981 95,17.321 85,17.321 80,25.981 70,25.981 75,34.641 "
       id="polygon168"
       style="fill:#000080;stroke:#ffffff;stroke-width:1;stroke-linejoin:round">
      <desc
         id="desc166">S7</desc>
    </polygon>
    <polygon
       points="85,17.321 105,17.321 100,8.66 80,8.66 70,25.981 80,25.981 "
       id="polygon172"
       style="fill:#808000;stroke:#ffffff;stroke-width:1;stroke-linejoin:round">
      <desc
         id="desc170">R7</desc>
    </polygon>
    <polygon
       points="110,25.981 115,17.321 125,17.321 120,8.66 100,8.66 105,17.321 95,17.321 100,25.981 "
       id="polygon176"
       style="fill:#ff4500;stroke:#ffffff;stroke-width:1;stroke-linejoin:round">
      <desc
         id="desc174">Z7</desc>
    </polygon>
    <polygon
       points="140,8.66 120,8.66 125,17.321 115,17.321 110,25.981 130,25.981 "
       id="polygon180"
       style="fill:#d2b48c;stroke:#ffffff;stroke-width:1;stroke-linejoin:round">
      <desc
         id="desc178">U7</desc>
    </polygon>
    <polygon
       points="145,17.321 150,25.981 160,25.981 150,8.66 140,8.66 130,25.981 140,25.981 "
       id="polygon184"
       style="fill:#ffd700;stroke:#ffffff;stroke-width:1;stroke-linejoin:round">
      <desc
         id="desc182">V7</desc>
    </polygon>
  </g>
</svg>
