<?xml version="1.0" encoding="UTF-8" standalone="no"?>
<!-- Created by Polyform Puzzler (http://puzzler.sourceforge.net/) -->

<svg
   xmlns:dc="http://purl.org/dc/elements/1.1/"
   xmlns:cc="http://creativecommons.org/ns#"
   xmlns:rdf="http://www.w3.org/1999/02/22-rdf-syntax-ns#"
   xmlns:svg="http://www.w3.org/2000/svg"
   xmlns="http://www.w3.org/2000/svg"
   xmlns:sodipodi="http://sodipodi.sourceforge.net/DTD/sodipodi-0.dtd"
   xmlns:inkscape="http://www.inkscape.org/namespaces/inkscape"
   width="460.000"
   height="460.000"
   viewBox="0 0 460.000 460.000"
   version="1.1"
   id="svg188"
   sodipodi:docname="polyiamonds-1234567-iamond-ring-coloured.svg"
   inkscape:version="0.92.3 (unknown)">
  <metadata
     id="metadata194">
    <rdf:RDF>
      <cc:Work
         rdf:about="">
        <dc:format>image/svg+xml</dc:format>
        <dc:type
           rdf:resource="http://purl.org/dc/dcmitype/StillImage" />
        <dc:title></dc:title>
      </cc:Work>
    </rdf:RDF>
  </metadata>
  <defs
     id="defs192" />
  <sodipodi:namedview
     pagecolor="#ffffff"
     bordercolor="#666666"
     borderopacity="1"
     objecttolerance="10"
     gridtolerance="10"
     guidetolerance="10"
     inkscape:pageopacity="0"
     inkscape:pageshadow="2"
     inkscape:window-width="1920"
     inkscape:window-height="1056"
     id="namedview190"
     showgrid="false"
     inkscape:zoom="6.4822715"
     inkscape:cx="162.72347"
     inkscape:cy="229.99999"
     inkscape:window-x="0"
     inkscape:window-y="24"
     inkscape:window-maximized="1"
     inkscape:current-layer="g186" />
  <g
     transform="translate(230.000,115.000) rotate(90)"
     id="g186">
    <polygon
       fill="green"
       stroke="white"
       stroke-width="1"
       stroke-linejoin="round"
       points="75.000,121.244 80.000,129.904 100.000,129.904 90.000,112.583 80.000,112.583"
       id="polygon4"
       style="fill:#ff4500;fill-opacity:1">
      <desc
         id="desc2">D7</desc>
    </polygon>
    <polygon
       fill="yellowgreen"
       stroke="white"
       stroke-width="1"
       stroke-linejoin="round"
       points="95.000,121.244 100.000,129.904 120.000,129.904 125.000,121.244 120.000,112.583 110.000,112.583 115.000,121.244"
       id="polygon8"
       style="fill:#ff4500;fill-opacity:1">
      <desc
         id="desc6">J7</desc>
    </polygon>
    <polygon
       fill="turquoise"
       stroke="white"
       stroke-width="1"
       stroke-linejoin="round"
       points="120.000,129.904 150.000,129.904 145.000,121.244 135.000,121.244 130.000,112.583 120.000,112.583 125.000,121.244"
       id="polygon12"
       style="fill:#ff4500;fill-opacity:1">
      <desc
         id="desc10">H7</desc>
    </polygon>
    <polygon
       fill="teal"
       stroke="white"
       stroke-width="1"
       stroke-linejoin="round"
       points="145.000,121.244 150.000,129.904 160.000,112.583 155.000,103.923 150.000,112.583 130.000,112.583 135.000,121.244"
       id="polygon16"
       style="fill:#ff4500;fill-opacity:1">
      <desc
         id="desc14">T7</desc>
    </polygon>
    <polygon
       fill="magenta"
       stroke="white"
       stroke-width="1"
       stroke-linejoin="round"
       points="70.000,112.583 75.000,121.244 85.000,103.923 95.000,103.923 85.000,86.603"
       id="polygon20"
       style="fill:#ff4500;fill-opacity:1">
      <desc
         id="desc18">P7</desc>
    </polygon>
    <polygon
       fill="gray"
       stroke="white"
       stroke-width="1"
       stroke-linejoin="round"
       points="90.000,112.583 95.000,121.244 115.000,121.244 110.000,112.583 100.000,112.583 95.000,103.923 85.000,103.923 80.000,112.583"
       id="polygon24"
       style="fill:#ff4500;fill-opacity:1">
      <desc
         id="desc22">N7</desc>
    </polygon>
    <polygon
       fill="red"
       stroke="white"
       stroke-width="1"
       stroke-linejoin="round"
       points="65.000,103.923 70.000,112.583 85.000,86.603 65.000,86.603 70.000,95.263 60.000,95.263"
       id="polygon28"
       style="fill:#ff4500;fill-opacity:1">
      <desc
         id="desc26">M7</desc>
    </polygon>
    <polygon
       fill="gold"
       stroke="white"
       stroke-width="1"
       stroke-linejoin="round"
       points="95.000,103.923 100.000,112.583 120.000,112.583 110.000,95.263 100.000,95.263 105.000,103.923"
       id="polygon32"
       style="fill:#800000;fill-opacity:1">
      <desc
         id="desc30">V6</desc>
    </polygon>
    <polygon
       fill="blueviolet"
       stroke="white"
       stroke-width="1"
       stroke-linejoin="round"
       points="115.000,103.923 120.000,112.583 140.000,112.583 135.000,103.923 125.000,103.923 120.000,95.263 110.000,95.263"
       id="polygon36"
       style="fill:#800000;fill-opacity:1">
      <desc
         id="desc34">C6</desc>
    </polygon>
    <polygon
       fill="red"
       stroke="white"
       stroke-width="1"
       stroke-linejoin="round"
       points="135.000,103.923 140.000,112.583 150.000,95.263 140.000,95.263 135.000,86.603 125.000,103.923"
       id="polygon40"
       style="fill:#800000;fill-opacity:1">
      <desc
         id="desc38">X6</desc>
    </polygon>
    <polygon
       fill="blue"
       stroke="white"
       stroke-width="1"
       stroke-linejoin="round"
       points="140.000,112.583 150.000,112.583 165.000,86.603 160.000,77.942"
       id="polygon44"
       style="fill:#ff4500;fill-opacity:1">
      <desc
         id="desc42">I7</desc>
    </polygon>
    <polygon
       fill="steelblue"
       stroke="white"
       stroke-width="1"
       stroke-linejoin="round"
       points="155.000,103.923 160.000,112.583 175.000,86.603 170.000,77.942 160.000,77.942 165.000,86.603"
       id="polygon48"
       style="fill:#ff4500;fill-opacity:1">
      <desc
         id="desc46">L7</desc>
    </polygon>
    <polygon
       fill="blue"
       stroke="white"
       stroke-width="1"
       stroke-linejoin="round"
       points="90.000,95.263 95.000,103.923 105.000,103.923 90.000,77.942 80.000,77.942"
       id="polygon52"
       style="fill:#800000;fill-opacity:1">
      <desc
         id="desc50">I6</desc>
    </polygon>
    <polygon
       fill="plum"
       stroke="white"
       stroke-width="1"
       stroke-linejoin="round"
       points="120.000,95.263 125.000,103.923 135.000,86.603 130.000,77.942"
       id="polygon56"
       style="fill:#000080;fill-opacity:1">
      <desc
         id="desc54">I4</desc>
    </polygon>
    <polygon
       fill="darkorange"
       stroke="white"
       stroke-width="1"
       stroke-linejoin="round"
       points="55.000,86.603 60.000,95.263 70.000,95.263 65.000,86.603 70.000,77.942 60.000,77.942 55.000,69.282 45.000,69.282"
       id="polygon60"
       style="fill:#ff4500;fill-opacity:1">
      <desc
         id="desc58">E7</desc>
    </polygon>
    <polygon
       fill="orangered"
       stroke="white"
       stroke-width="1"
       stroke-linejoin="round"
       points="95.000,86.603 100.000,95.263 120.000,95.263 125.000,86.603"
       id="polygon64"
       style="fill:#008000;fill-opacity:1">
      <desc
         id="desc62">I5</desc>
    </polygon>
    <polygon
       fill="maroon"
       stroke="white"
       stroke-width="1"
       stroke-linejoin="round"
       points="135.000,86.603 140.000,95.263 150.000,95.263 155.000,86.603 145.000,86.603 150.000,77.942 145.000,69.282"
       id="polygon68"
       style="fill:#800000;fill-opacity:1">
      <desc
         id="desc66">G6</desc>
    </polygon>
    <polygon
       fill="indigo"
       stroke="white"
       stroke-width="1"
       stroke-linejoin="round"
       points="65.000,86.603 85.000,86.603 80.000,77.942 85.000,69.282 75.000,69.282 70.000,60.622 65.000,69.282 70.000,77.942"
       id="polygon72"
       style="fill:#ff4500;fill-opacity:1">
      <desc
         id="desc70">X7</desc>
    </polygon>
    <polygon
       fill="teal"
       stroke="white"
       stroke-width="1"
       stroke-linejoin="round"
       points="90.000,77.942 95.000,86.603 105.000,86.603 95.000,69.282"
       id="polygon76"
       style="fill:#4b0082;fill-opacity:1">
      <desc
         id="desc74">I3</desc>
    </polygon>
    <polygon
       fill="gray"
       stroke="white"
       stroke-width="1"
       stroke-linejoin="round"
       points="115.000,86.603 125.000,86.603 120.000,77.942"
       id="polygon80"
       style="fill:#000000">
      <desc
         id="desc78">T1</desc>
    </polygon>
    <polygon
       fill="olive"
       stroke="white"
       stroke-width="1"
       stroke-linejoin="round"
       points="120.000,77.942 125.000,86.603 130.000,77.942 135.000,86.603 140.000,77.942 135.000,69.282 125.000,69.282"
       id="polygon84"
       style="fill:#008000;fill-opacity:1">
      <desc
         id="desc82">C5</desc>
    </polygon>
    <polygon
       fill="lime"
       stroke="white"
       stroke-width="1"
       stroke-linejoin="round"
       points="145.000,86.603 155.000,86.603 160.000,77.942 150.000,60.622 140.000,60.622 150.000,77.942"
       id="polygon88"
       style="fill:#800000;fill-opacity:1">
      <desc
         id="desc86">J6</desc>
    </polygon>
    <polygon
       fill="peru"
       stroke="white"
       stroke-width="1"
       stroke-linejoin="round"
       points="170.000,77.942 175.000,86.603 185.000,69.282 180.000,60.622 170.000,60.622 175.000,69.282 165.000,69.282 160.000,77.942"
       id="polygon92"
       style="fill:#ff4500;fill-opacity:1">
      <desc
         id="desc90">A7</desc>
    </polygon>
    <polygon
       fill="blueviolet"
       stroke="white"
       stroke-width="1"
       stroke-linejoin="round"
       points="55.000,69.282 60.000,77.942 70.000,77.942 65.000,69.282 70.000,60.622 65.000,51.962 60.000,60.622 50.000,60.622 45.000,69.282"
       id="polygon96"
       style="fill:#ff4500;fill-opacity:1">
      <desc
         id="desc94">W7</desc>
    </polygon>
    <polygon
       fill="navy"
       stroke="white"
       stroke-width="1"
       stroke-linejoin="round"
       points="80.000,77.942 90.000,77.942 95.000,69.282 90.000,60.622 95.000,51.962 85.000,51.962 80.000,60.622 85.000,69.282"
       id="polygon100"
       style="fill:#800000;fill-opacity:1">
      <desc
         id="desc98">S6</desc>
    </polygon>
    <polygon
       fill="darkseagreen"
       stroke="white"
       stroke-width="1"
       stroke-linejoin="round"
       points="135.000,69.282 140.000,77.942 145.000,69.282 140.000,60.622 120.000,60.622 125.000,69.282"
       id="polygon104"
       style="fill:#008000;fill-opacity:1">
      <desc
         id="desc102">L5</desc>
    </polygon>
    <polygon
       fill="darkseagreen"
       stroke="white"
       stroke-width="1"
       stroke-linejoin="round"
       points="155.000,69.282 160.000,77.942 165.000,69.282 175.000,69.282 170.000,60.622 180.000,60.622 175.000,51.962 165.000,51.962"
       id="polygon108"
       style="fill:#ff4500;fill-opacity:1">
      <desc
         id="desc106">F7</desc>
    </polygon>
    <polygon
       fill="lightcoral"
       stroke="white"
       stroke-width="1"
       stroke-linejoin="round"
       points="70.000,60.622 75.000,69.282 85.000,69.282 80.000,60.622 90.000,43.301 70.000,43.301 75.000,51.962"
       id="polygon112"
       style="fill:#ff4500;fill-opacity:1">
      <desc
         id="desc110">Q7</desc>
    </polygon>
    <polygon
       fill="steelblue"
       stroke="white"
       stroke-width="1"
       stroke-linejoin="round"
       points="90.000,60.622 95.000,69.282 100.000,60.622 95.000,51.962"
       id="polygon116"
       style="fill:#808080;fill-opacity:1">
      <desc
         id="desc114">D2</desc>
    </polygon>
    <polygon
       fill="turquoise"
       stroke="white"
       stroke-width="1"
       stroke-linejoin="round"
       points="150.000,60.622 155.000,69.282 160.000,60.622 150.000,43.301 145.000,51.962 135.000,51.962 140.000,60.622"
       id="polygon120"
       style="fill:#800000;fill-opacity:1">
      <desc
         id="desc118">H6</desc>
    </polygon>
    <polygon
       fill="maroon"
       stroke="white"
       stroke-width="1"
       stroke-linejoin="round"
       points="50.000,60.622 60.000,60.622 65.000,51.962 70.000,60.622 75.000,51.962 65.000,34.641"
       id="polygon124"
       style="fill:#ff4500;fill-opacity:1">
      <desc
         id="desc122">G7</desc>
    </polygon>
    <polygon
       fill="brown"
       stroke="white"
       stroke-width="1"
       stroke-linejoin="round"
       points="95.000,51.962 100.000,60.622 105.000,51.962 115.000,51.962 110.000,43.301 100.000,43.301"
       id="polygon128"
       style="fill:#000080;fill-opacity:1">
      <desc
         id="desc126">C4</desc>
    </polygon>
    <polygon
       fill="indigo"
       stroke="white"
       stroke-width="1"
       stroke-linejoin="round"
       points="115.000,51.962 120.000,60.622 130.000,43.301 125.000,34.641 120.000,43.301 110.000,43.301"
       id="polygon132"
       style="fill:#008000;fill-opacity:1">
      <desc
         id="desc130">P5</desc>
    </polygon>
    <polygon
       fill="tomato"
       stroke="white"
       stroke-width="1"
       stroke-linejoin="round"
       points="120.000,60.622 140.000,60.622 130.000,43.301"
       id="polygon136"
       style="fill:#000080;fill-opacity:1">
      <desc
         id="desc134">T4</desc>
    </polygon>
    <polygon
       fill="plum"
       stroke="white"
       stroke-width="1"
       stroke-linejoin="round"
       points="155.000,51.962 160.000,60.622 165.000,51.962 175.000,51.962 165.000,34.641 155.000,34.641 160.000,43.301 150.000,43.301"
       id="polygon140"
       style="fill:#ff4500;fill-opacity:1">
      <desc
         id="desc138">B7</desc>
    </polygon>
    <polygon
       fill="magenta"
       stroke="white"
       stroke-width="1"
       stroke-linejoin="round"
       points="85.000,51.962 95.000,51.962 100.000,43.301 110.000,43.301 100.000,25.981"
       id="polygon144"
       style="fill:#800000;fill-opacity:1">
      <desc
         id="desc142">P6</desc>
    </polygon>
    <polygon
       fill="green"
       stroke="white"
       stroke-width="1"
       stroke-linejoin="round"
       points="130.000,43.301 135.000,51.962 145.000,51.962 150.000,43.301 145.000,34.641 135.000,34.641"
       id="polygon148"
       style="fill:#800000;fill-opacity:1">
      <desc
         id="desc146">O6</desc>
    </polygon>
    <polygon
       fill="lime"
       stroke="white"
       stroke-width="1"
       stroke-linejoin="round"
       points="65.000,34.641 70.000,43.301 90.000,43.301 95.000,34.641 90.000,25.981 85.000,34.641 75.000,34.641 70.000,25.981"
       id="polygon152"
       style="fill:#ff4500;fill-opacity:1">
      <desc
         id="desc150">C7</desc>
    </polygon>
    <polygon
       fill="plum"
       stroke="white"
       stroke-width="1"
       stroke-linejoin="round"
       points="105.000,34.641 110.000,43.301 120.000,43.301 125.000,34.641 115.000,34.641 120.000,25.981 100.000,25.981"
       id="polygon156"
       style="fill:#800000;fill-opacity:1">
      <desc
         id="desc154">F6</desc>
    </polygon>
    <polygon
       fill="darkorange"
       stroke="white"
       stroke-width="1"
       stroke-linejoin="round"
       points="125.000,34.641 130.000,43.301 135.000,34.641 145.000,34.641 140.000,25.981 120.000,25.981 115.000,34.641"
       id="polygon160"
       style="fill:#800000;fill-opacity:1">
      <desc
         id="desc158">E6</desc>
    </polygon>
    <polygon
       fill="yellow"
       stroke="white"
       stroke-width="1"
       stroke-linejoin="round"
       points="145.000,34.641 150.000,43.301 160.000,43.301 155.000,34.641 165.000,34.641 160.000,25.981 150.000,25.981 145.000,17.321 140.000,25.981"
       id="polygon164"
       style="fill:#ff4500;fill-opacity:1">
      <desc
         id="desc162">Y7</desc>
    </polygon>
    <polygon
       fill="navy"
       stroke="white"
       stroke-width="1"
       stroke-linejoin="round"
       points="70.000,25.981 75.000,34.641 85.000,34.641 90.000,25.981 95.000,34.641 100.000,25.981 95.000,17.321 85.000,17.321 80.000,25.981"
       id="polygon168"
       style="fill:#ff4500;fill-opacity:1">
      <desc
         id="desc166">S7</desc>
    </polygon>
    <polygon
       fill="olive"
       stroke="white"
       stroke-width="1"
       stroke-linejoin="round"
       points="70.000,25.981 80.000,25.981 85.000,17.321 105.000,17.321 100.000,8.660 80.000,8.660"
       id="polygon172"
       style="fill:#ff4500;fill-opacity:1">
      <desc
         id="desc170">R7</desc>
    </polygon>
    <polygon
       fill="orangered"
       stroke="white"
       stroke-width="1"
       stroke-linejoin="round"
       points="95.000,17.321 100.000,25.981 110.000,25.981 115.000,17.321 125.000,17.321 120.000,8.660 100.000,8.660 105.000,17.321"
       id="polygon176">
      <desc
         id="desc174">Z7</desc>
    </polygon>
    <polygon
       fill="tan"
       stroke="white"
       stroke-width="1"
       stroke-linejoin="round"
       points="110.000,25.981 130.000,25.981 140.000,8.660 120.000,8.660 125.000,17.321 115.000,17.321"
       id="polygon180"
       style="fill:#ff4500;fill-opacity:1">
      <desc
         id="desc178">U7</desc>
    </polygon>
    <polygon
       fill="gold"
       stroke="white"
       stroke-width="1"
       stroke-linejoin="round"
       points="130.000,25.981 140.000,25.981 145.000,17.321 150.000,25.981 160.000,25.981 150.000,8.660 140.000,8.660"
       id="polygon184"
       style="fill:#ff4500;fill-opacity:1">
      <desc
         id="desc182">V7</desc>
    </polygon>
  </g>
</svg>
